<svg version="1.1" id="Layer_1" xmlns="http://www.w3.org/2000/svg" xmlns:xlink="http://www.w3.org/1999/xlink" x="0px" y="0px"
	 width="100%" viewBox="0 0 225 225" enable-background="new 0 0 225 225" xml:space="preserve">
<path fill="#FFFFFF" opacity="1.000000" stroke="none" 
	d="
M146.000000,226.000000 
	C97.739922,226.000000 49.479843,226.000000 1.000000,226.000000 
	C1.000000,178.312668 1.000000,130.624985 1.350207,82.515144 
	C4.277128,83.725578 6.649423,86.015587 9.461860,86.890106 
	C41.026852,96.705139 72.643593,106.355438 104.295670,115.886505 
	C107.981514,116.996391 109.959511,118.739700 111.102142,122.555679 
	C120.631737,154.381073 130.309402,186.163239 140.223511,217.870560 
	C141.166824,220.887497 144.028778,223.304489 146.000000,226.000000 
z"/>
<path fill="#FF7C25" opacity="1.000000" stroke="none" 
	d="
M146.416656,226.000000 
	C144.028778,223.304489 141.166824,220.887497 140.223511,217.870560 
	C130.309402,186.163239 120.631737,154.381073 111.102142,122.555679 
	C109.959511,118.739700 107.981514,116.996391 104.295670,115.886505 
	C72.643593,106.355438 41.026852,96.705139 9.461860,86.890106 
	C6.649423,86.015587 4.277128,83.725578 1.350207,82.046486 
	C1.000000,80.285645 1.000000,78.571281 1.327583,76.314606 
	C3.877620,74.195602 5.881230,71.958679 8.354555,71.138863 
	C69.216133,50.965614 130.136185,30.968864 191.020920,10.865260 
	C200.409485,7.765239 209.676682,4.297615 219.000000,0.999997 
	C221.247635,1.000000 223.495285,1.000000 226.000000,1.000000 
	C226.000000,2.998142 226.000000,5.001166 225.654816,7.635766 
	C220.134171,23.850702 214.936371,39.426689 209.787247,55.018753 
	C191.808228,109.461052 173.877258,163.919281 155.787186,218.324646 
	C154.862320,221.106171 152.625824,223.451553 151.000000,226.000000 
	C149.611115,226.000000 148.222214,226.000000 146.416656,226.000000 
M53.184071,91.308151 
	C71.452347,96.898232 89.751953,102.389793 107.957031,108.178619 
	C110.877602,109.107307 112.467735,108.459351 114.437073,106.482941 
	C143.463226,77.352867 172.556717,48.289867 201.618408,19.195164 
	C202.423782,18.388874 203.053955,17.407547 204.586136,15.471118 
	C139.974609,36.753452 76.739876,57.582287 12.120257,78.867287 
	C26.450092,83.202698 39.441990,87.133324 53.184071,91.308151 
z"/>
<path fill="#FFFEFE" opacity="1.000000" stroke="none" 
	d="
M151.468658,226.000000 
	C152.625824,223.451553 154.862320,221.106171 155.787186,218.324646 
	C173.877258,163.919281 191.808228,109.461052 209.787247,55.018753 
	C214.936371,39.426689 220.134171,23.850702 225.654816,8.133671 
	C226.000000,80.558037 226.000000,153.116074 226.000000,226.000000 
	C201.313400,226.000000 176.625351,226.000000 151.468658,226.000000 
z"/>
<path fill="#FFFEFE" opacity="1.000000" stroke="none" 
	d="
M218.531342,0.999997 
	C209.676682,4.297615 200.409485,7.765239 191.020920,10.865260 
	C130.136185,30.968864 69.216133,50.965614 8.354555,71.138863 
	C5.881230,71.958679 3.877620,74.195602 1.327583,75.886139 
	C1.000000,51.037373 1.000000,26.074745 1.000000,1.000000 
	C73.354187,1.000000 145.708435,1.000000 218.531342,0.999997 
z"/>
<path fill="#FFFEFE" opacity="1.000000" stroke="none" 
	d="
M52.808979,91.186050 
	C39.441990,87.133324 26.450092,83.202698 12.120257,78.867287 
	C76.739876,57.582287 139.974609,36.753452 204.586136,15.471118 
	C203.053955,17.407547 202.423782,18.388874 201.618408,19.195164 
	C172.556717,48.289867 143.463226,77.352867 114.437073,106.482941 
	C112.467735,108.459351 110.877602,109.107307 107.957031,108.178619 
	C89.751953,102.389793 71.452347,96.898232 52.808979,91.186050 
z"/>
</svg>